<?xml version="1.0" standalone="no"?>
<!DOCTYPE svg PUBLIC "-//W3C//DTD SVG 20010904//EN"
 "http://www.w3.org/TR/2001/REC-SVG-20010904/DTD/svg10.dtd">
<svg version="1.0" xmlns="http://www.w3.org/2000/svg"
 width="700.000000pt" height="700.000000pt" viewBox="0 0 700.000000 700.000000"
 preserveAspectRatio="xMidYMid meet">
<metadata>
Created by potrace 1.14, written by Peter Selinger 2001-2017
</metadata>
<g transform="translate(0.000000,700.000000) scale(0.100000,-0.100000)"
fill="#000000" stroke="none">
<path d="M4553 6975 c-234 -77 -440 -241 -566 -452 -17 -29 -34 -53 -38 -53
-3 0 -22 24 -42 54 -74 111 -242 261 -350 311 -84 39 -136 24 -274 -79 -265
-200 -406 -474 -417 -814 -1 -45 -5 -84 -8 -87 -3 -3 -25 2 -49 10 -186 67
-401 77 -607 30 -114 -27 -134 -52 -163 -209 -24 -134 -20 -337 10 -447 41
-151 134 -330 223 -429 64 -72 66 -66 -20 -67 -433 -5 -781 -15 -817 -23 -396
-89 -700 -329 -840 -665 -9 -22 -21 -49 -26 -60 -11 -25 -46 -142 -53 -175 -3
-14 -10 -51 -16 -82 -7 -39 -12 -469 -14 -1382 -1 -729 -4 -1327 -7 -1330 -2
-2 -98 -6 -212 -8 l-208 -5 -29 -28 -30 -29 0 -126 c0 -152 10 -194 82 -348
87 -185 276 -353 482 -429 140 -51 -54 -48 2941 -47 l2770 0 74 23 c315 96
533 316 623 627 18 62 23 103 22 188 l-1 108 -32 30 -33 31 -177 5 c-97 2
-177 5 -178 6 0 0 -3 606 -6 1346 -3 740 -8 1359 -11 1375 -62 286 -166 493
-327 654 -111 111 -235 190 -397 255 -171 68 -213 74 -562 81 -173 4 -351 8
-395 10 -44 2 -109 3 -144 4 l-63 1 26 34 c14 19 26 37 26 40 0 3 14 25 30 50
43 63 103 204 116 271 2 11 8 42 13 68 20 111 -1 283 -54 427 -19 51 -80 167
-101 191 -8 8 -14 20 -14 26 0 14 -125 132 -194 183 -72 52 -178 109 -264 140
-34 13 -65 27 -68 31 -8 13 53 149 96 214 123 186 290 281 545 310 33 4 70 15
82 24 32 23 65 93 59 128 -2 15 -5 31 -5 35 -1 4 -15 23 -32 43 l-31 35 -137
-1 c-114 0 -147 -4 -208 -24z m-1031 -466 c72 -46 142 -132 193 -234 25 -49
45 -95 45 -101 0 -5 -17 -16 -37 -23 -214 -76 -378 -219 -476 -414 l-34 -68
-17 62 c-10 34 -20 82 -24 108 -8 59 -7 196 2 241 18 97 70 214 131 296 36 48
151 164 163 164 3 0 27 -14 54 -31z m523 -604 c174 -19 301 -77 394 -181 83
-94 149 -257 156 -389 7 -125 -71 -313 -174 -416 -89 -89 -172 -132 -319 -165
-104 -23 -232 -1 -353 61 -151 79 -260 223 -300 397 -29 125 -27 162 11 288
50 162 153 280 312 355 69 33 190 66 213 59 6 -2 33 -6 60 -9z m-1427 -290
c240 -56 409 -192 500 -402 52 -119 93 -279 86 -328 -2 -11 -5 -33 -8 -50 -2
-16 -5 -43 -5 -58 l-1 -29 -121 3 c-147 3 -243 25 -359 82 -174 85 -335 297
-390 516 -18 71 -15 237 5 268 17 25 17 25 123 19 58 -3 134 -13 170 -21z
m2612 -1158 c201 -4 262 -8 337 -25 245 -55 427 -174 547 -356 62 -95 86 -145
120 -252 42 -133 46 -165 46 -354 0 -180 -7 -280 -21 -297 -19 -22 -170 -119
-247 -158 -58 -29 -84 -37 -125 -36 -77 1 -139 23 -214 79 -296 216 -441 281
-604 269 -42 -3 -104 -15 -139 -27 -83 -28 -249 -128 -415 -250 -68 -50 -128
-72 -200 -72 -71 0 -130 21 -200 72 -51 37 -300 196 -345 221 -76 41 -141 54
-260 52 -142 -2 -236 -43 -465 -202 -159 -109 -177 -121 -215 -131 -55 -15
-131 -15 -176 0 -21 7 -97 52 -169 99 -310 207 -396 244 -554 237 -97 -5 -190
-32 -256 -77 -24 -16 -46 -29 -50 -29 -8 0 -209 -134 -258 -172 -83 -66 -199
-86 -296 -53 -25 9 -100 53 -166 98 -101 70 -120 87 -126 114 -8 39 -4 375 5
453 4 30 9 75 12 100 l5 46 317 0 c279 1 794 11 907 19 22 2 49 3 61 4 13 1
28 15 42 40 37 65 24 154 -26 187 -23 15 -53 18 -202 20 -139 1 -845 15 -922
18 -10 0 -18 4 -18 8 0 4 29 39 65 77 142 150 348 254 550 276 33 4 61 8 62 9
4 4 3347 -3 3593 -7z m-3180 -1438 c41 -14 52 -21 190 -117 156 -110 284 -179
364 -197 128 -30 276 -16 377 35 48 25 271 166 354 225 130 91 246 95 370 12
33 -22 62 -43 65 -46 7 -9 161 -109 238 -155 70 -42 145 -71 212 -81 51 -8
152 -8 190 0 14 2 39 8 55 11 58 12 168 76 402 231 125 84 173 102 255 97 69
-4 112 -25 231 -110 135 -97 295 -190 362 -210 43 -13 92 -19 175 -19 132 0
199 18 313 84 l67 40 1 -122 c0 -67 3 -198 5 -292 6 -269 9 -1373 4 -1379 -3
-2 -509 -6 -1125 -8 -824 -3 -1126 -8 -1142 -16 -57 -31 -81 -127 -48 -191 32
-63 -36 -59 1100 -65 1128 -7 1615 -13 1622 -20 6 -6 -51 -128 -80 -171 -66
-97 -158 -172 -267 -215 -144 -58 32 -55 -2825 -55 -1447 0 -2659 4 -2695 8
-191 23 -347 120 -450 278 -37 58 -76 146 -67 155 7 7 424 12 1607 19 852 6
1049 9 1066 20 12 8 32 31 45 51 21 34 22 41 11 93 -7 33 -21 65 -36 79 l-23
24 -519 4 c-286 2 -782 4 -1103 4 l-584 0 7 783 c8 879 10 1017 14 1017 2 0
17 -9 32 -20 49 -35 143 -78 209 -95 100 -26 255 -15 355 24 36 14 175 100
326 201 64 43 138 85 165 93 53 17 119 15 175 -4z"/>
<path d="M2468 4075 c-47 -24 -94 -163 -50 -149 13 5 14 4 3 -4 -12 -8 -12
-15 -2 -40 22 -53 53 -74 112 -75 32 0 54 4 57 11 2 7 7 10 12 7 5 -3 22 8 38
25 71 71 26 221 -68 226 -14 1 -25 3 -25 4 0 7 -61 4 -77 -5z"/>
<path d="M3395 985 c-34 -38 -50 -81 -33 -91 6 -4 6 -10 0 -16 -13 -13 14 -81
44 -109 51 -48 182 -19 212 46 16 36 15 100 -3 135 -25 49 -57 66 -125 69 -59
2 -63 1 -95 -34z"/>
</g>
</svg>
